<svg width="28" height="39" viewBox="0 0 28 39" fill="none" xmlns="http://www.w3.org/2000/svg">
<path d="M27.719 24.5458L14.107 38.9998L-0.000976562 24.5458V0.174805H27.719V24.5458Z" fill="#BD081C"/>
<path d="M12.885 16.9457C12.398 18.9677 12.139 20.9947 10.685 22.5277L10.534 22.5217C10.4413 21.7792 10.4142 21.03 10.453 20.2827C10.675 18.6297 11.015 16.9917 11.31 15.3487C11.342 15.1727 11.396 15.0007 11.44 14.8277C11.5663 14.3597 11.5773 13.8679 11.472 13.3947C11.3601 12.797 11.3622 12.1836 11.478 11.5867C11.5341 11.2822 11.6773 11.0005 11.8903 10.7758C12.1033 10.5511 12.3769 10.393 12.678 10.3207C12.8411 10.2616 13.0161 10.2423 13.1882 10.2644C13.3603 10.2866 13.5246 10.3496 13.6674 10.4481C13.8103 10.5466 13.9275 10.6778 14.0094 10.8308C14.0912 10.9838 14.1353 11.1542 14.138 11.3277C14.1258 11.891 14.0523 12.4513 13.919 12.9987C13.808 13.5367 13.609 14.0557 13.482 14.5917C13.3852 14.8701 13.3761 15.1715 13.4559 15.4552C13.5356 15.739 13.7004 15.9915 13.928 16.1787C14.1726 16.3813 14.4739 16.5034 14.7906 16.5281C15.1073 16.5528 15.4239 16.479 15.697 16.3167C16.0803 16.1195 16.4103 15.8327 16.659 15.4807C17.5646 14.12 17.8996 12.458 17.592 10.8527C17.4494 10.1642 17.0798 9.54348 16.5424 9.09014C16.0049 8.63681 15.3307 8.3771 14.628 8.35272C14.03 8.24821 13.4166 8.27206 12.8285 8.42269C12.2404 8.57332 11.691 8.84728 11.2169 9.2264C10.7427 9.60552 10.3546 10.0811 10.0782 10.6217C9.8019 11.1622 9.64365 11.7554 9.61401 12.3617C9.56529 13.0389 9.75101 13.7123 10.14 14.2687C10.2684 14.4714 10.3323 14.7082 10.3234 14.948C10.3144 15.1877 10.2331 15.4191 10.09 15.6117C10.0357 15.6708 9.96772 15.7155 9.89202 15.742C9.81632 15.7685 9.73526 15.776 9.656 15.7637C9.37593 15.6771 9.11918 15.5281 8.90508 15.3278C8.69098 15.1276 8.52509 14.8814 8.41998 14.6077C7.9787 13.758 7.7939 12.7984 7.88799 11.8455C7.98209 10.8927 8.35105 9.98771 8.95 9.24072C9.98411 7.98496 11.4402 7.14888 13.046 6.88882C14.6518 6.62876 16.2974 6.96254 17.675 7.82772C18.3653 8.27063 18.9289 8.88519 19.3105 9.61123C19.6921 10.3373 19.8787 11.1499 19.852 11.9697C19.9017 13.5532 19.4139 15.1068 18.468 16.3777C18.0393 16.9684 17.4579 17.4312 16.7862 17.7166C16.1145 18.002 15.3778 18.0991 14.655 17.9977C14.3018 17.9597 13.9608 17.846 13.6554 17.6645C13.35 17.483 13.0872 17.2379 12.885 16.9457Z" fill="white"/>
</svg>
